# Blender v2.76 (sub 0) OBJ File: ''
# www.blender.org
mtllib tree.mtl
o Icosphere.004
v -0.088208 2.317051 -0.759835
v 0.252530 2.197915 -0.499395
v -0.117473 2.419921 -0.366825
v -0.250566 2.708521 -0.676355
v -0.000921 2.698415 -0.982397
v 0.321382 2.363914 -0.881501
v 0.270366 2.551351 -0.237607
v -0.043309 2.849441 -0.352726
v 0.058753 2.997289 -0.746451
v 0.386918 2.829846 -0.853180
v 0.538963 2.529906 -0.550627
v 0.376645 2.921354 -0.467161
v -0.922987 1.732283 -0.887714
v -0.503339 1.677895 -0.606161
v -1.049688 2.010771 -0.413796
v -1.174263 2.346095 -0.757815
v -0.786189 2.320210 -1.460808
v -0.337807 1.868883 -1.255610
v -0.366825 2.153879 -0.045810
v -0.830530 2.606654 -0.237493
v -0.731822 2.860865 -1.056497
v -0.132293 2.466056 -1.067270
v -0.007720 2.130733 -0.723251
v -0.245349 2.743255 -0.605388
v 0.772189 1.574547 -0.276657
v 1.226361 1.583828 0.074422
v 0.703587 1.905775 0.257697
v 0.516997 2.288052 -0.225081
v 0.921643 2.171415 -0.744880
v 1.358559 1.747193 -0.565571
v 1.294209 1.938533 0.480531
v 0.859380 2.399110 0.336524
v 0.977840 2.715709 -0.329727
v 1.517841 2.266521 -0.445984
v 1.703629 1.890178 0.033669
v 1.447631 2.557858 0.054930
v -0.985651 1.688027 0.552417
v -0.072561 1.565346 1.070808
v -1.029270 1.921962 1.258029
v -1.267848 2.371870 0.697732
v -0.787416 2.275106 0.126976
v -0.253490 1.765873 0.334991
v -0.008975 2.166716 1.518017
v -0.525003 2.670581 1.304705
v -0.704686 2.870735 0.568520
v 0.252021 2.514118 0.381298
v 0.178700 2.040929 0.899319
v -0.108879 2.726389 1.046229
v -0.110987 2.754264 -0.275647
v 0.425055 2.362303 0.253640
v -0.222979 2.752950 0.486114
v -0.404351 3.474005 -0.122480
v 0.051714 3.118585 -0.710261
v 0.647309 2.830137 -0.494901
v 0.534974 3.265006 0.704001
v -0.051131 3.525543 0.499813
v 0.216932 3.942305 -0.196733
v 0.766672 3.360869 -0.472056
v 0.997418 2.893454 0.123669
v 0.747228 3.887727 0.256606
vn -0.452600 -0.870300 0.194100
vn -0.014200 -0.916200 -0.400600
vn -0.920700 -0.388900 0.033200
vn -0.764400 -0.185400 -0.617500
vn -0.204600 -0.458000 -0.865100
vn 0.736300 -0.659000 -0.153600
vn -0.067200 -0.591700 0.803400
vn -0.859900 0.132300 0.493100
vn -0.637200 0.551900 -0.538000
vn 0.311800 0.013900 -0.950000
vn 0.652900 -0.471800 0.592500
vn -0.323600 0.024800 0.945900
vn -0.665900 0.738700 0.104800
vn 0.055600 0.611800 -0.789000
vn 0.852100 -0.088500 -0.515900
vn 0.752900 0.177000 0.633900
vn 0.150200 0.489700 0.858900
vn -0.069700 0.939700 0.334800
vn 0.392100 0.897400 -0.202300
vn 0.916200 0.394700 -0.069200
vn -0.373100 -0.840000 0.393900
vn 0.055600 -0.961600 -0.268600
vn -0.927200 -0.373600 -0.028400
vn -0.851300 -0.251000 -0.460700
vn -0.304000 -0.627800 -0.716600
vn 0.667500 -0.743100 -0.048400
vn -0.205800 -0.720500 0.662200
vn -0.859500 0.173900 0.480700
vn -0.789300 0.416700 -0.451000
vn 0.496400 0.101100 -0.862200
vn 0.671600 -0.637400 0.377800
vn -0.457000 -0.093600 0.884500
vn -0.714400 0.688000 0.127400
vn 0.342100 0.540400 -0.768700
vn 0.871800 -0.153300 -0.465200
vn 0.859500 0.247400 0.447200
vn 0.308200 0.620800 0.720800
vn -0.039600 0.955600 0.291800
vn 0.511500 0.786200 -0.346700
vn 0.933000 0.359600 0.012600
vn -0.341300 -0.817900 0.463200
vn 0.180500 -0.961300 -0.208100
vn -0.935500 -0.341200 0.091400
vn -0.791200 -0.242400 -0.561500
vn -0.224200 -0.566100 -0.793200
vn 0.530800 -0.841000 -0.105000
vn -0.210200 -0.718700 0.662800
vn -0.854300 0.192700 0.482700
vn -0.615200 0.517300 -0.595000
vn 0.437800 0.072100 -0.896200
vn 0.491000 -0.695100 0.525100
vn -0.350900 -0.038700 0.935600
vn -0.630900 0.738300 0.238600
vn 0.298600 0.559100 -0.773500
vn 0.871400 -0.160500 -0.463500
vn 0.726100 0.258100 0.637300
vn 0.259200 0.502600 0.824800
vn -0.041900 0.905300 0.422700
vn 0.549100 0.753600 -0.361300
vn 0.930000 0.359100 -0.078500
vn -0.285100 -0.914900 0.285700
vn 0.022800 -0.963100 -0.268100
vn -0.916200 -0.393800 0.073900
vn -0.767000 -0.186000 -0.614100
vn -0.188000 -0.533900 -0.824400
vn 0.777300 -0.531800 -0.336100
vn -0.063000 -0.591200 0.804000
vn -0.670100 0.412900 0.616900
vn -0.604000 0.527000 -0.597800
vn 0.261400 -0.117300 -0.958100
vn 0.877500 -0.342500 0.335800
vn -0.272900 0.124400 0.954000
vn -0.577700 0.740900 0.342400
vn 0.061800 0.588800 -0.805900
vn 0.785100 -0.508600 -0.353400
vn 0.916900 0.339900 0.209000
vn 0.341300 0.640700 0.687800
vn 0.029200 0.966300 0.255600
vn 0.325500 0.937600 -0.122600
vn 0.877600 0.285600 0.385100
vn -0.535500 -0.840700 -0.080200
vn -0.073700 -0.835700 -0.544200
vn -0.927200 -0.348800 -0.136900
vn -0.831400 -0.231400 -0.505200
vn -0.117900 -0.738800 -0.663500
vn 0.619600 -0.735000 -0.275400
vn 0.048200 -0.450600 0.891400
vn -0.861400 0.183200 0.473800
vn -0.483400 0.530900 -0.696100
vn 0.325900 -0.032600 -0.944900
vn 0.556000 -0.424300 0.714700
vn -0.308000 0.051700 0.950000
vn -0.562600 0.786700 0.254200
vn 0.111600 0.509500 -0.853200
vn 0.864500 -0.174100 -0.471500
vn 0.814200 0.129200 0.566100
vn -0.020400 0.587900 0.808700
vn -0.267100 0.868800 0.417000
vn 0.499400 0.708400 -0.498900
vn 0.951300 0.261200 -0.163500
usemtl Material.002
s off
f 1//1 2//1 3//1
f 2//2 1//2 6//2
f 1//3 3//3 4//3
f 1//4 4//4 5//4
f 1//5 5//5 6//5
f 2//6 6//6 11//6
f 3//7 2//7 7//7
f 4//8 3//8 8//8
f 5//9 4//9 9//9
f 6//10 5//10 10//10
f 2//11 11//11 7//11
f 3//12 7//12 8//12
f 4//13 8//13 9//13
f 5//14 9//14 10//14
f 6//15 10//15 11//15
f 7//16 11//16 12//16
f 8//17 7//17 12//17
f 9//18 8//18 12//18
f 10//19 9//19 12//19
f 11//20 10//20 12//20
f 13//21 14//21 15//21
f 14//22 13//22 18//22
f 13//23 15//23 16//23
f 13//24 16//24 17//24
f 13//25 17//25 18//25
f 14//26 18//26 23//26
f 15//27 14//27 19//27
f 16//28 15//28 20//28
f 17//29 16//29 21//29
f 18//30 17//30 22//30
f 14//31 23//31 19//31
f 15//32 19//32 20//32
f 16//33 20//33 21//33
f 17//34 21//34 22//34
f 18//35 22//35 23//35
f 19//36 23//36 24//36
f 20//37 19//37 24//37
f 21//38 20//38 24//38
f 22//39 21//39 24//39
f 23//40 22//40 24//40
f 25//41 26//41 27//41
f 26//42 25//42 30//42
f 25//43 27//43 28//43
f 25//44 28//44 29//44
f 25//45 29//45 30//45
f 26//46 30//46 35//46
f 27//47 26//47 31//47
f 28//48 27//48 32//48
f 29//49 28//49 33//49
f 30//50 29//50 34//50
f 26//51 35//51 31//51
f 27//52 31//52 32//52
f 28//53 32//53 33//53
f 29//54 33//54 34//54
f 30//55 34//55 35//55
f 31//56 35//56 36//56
f 32//57 31//57 36//57
f 33//58 32//58 36//58
f 34//59 33//59 36//59
f 35//60 34//60 36//60
f 37//61 38//61 39//61
f 38//62 37//62 42//62
f 37//63 39//63 40//63
f 37//64 40//64 41//64
f 37//65 41//65 42//65
f 38//66 42//66 47//66
f 39//67 38//67 43//67
f 40//68 39//68 44//68
f 41//69 40//69 45//69
f 42//70 41//70 46//70
f 38//71 47//71 43//71
f 39//72 43//72 44//72
f 40//73 44//73 45//73
f 41//74 45//74 46//74
f 42//75 46//75 47//75
f 43//76 47//76 48//76
f 44//77 43//77 48//77
f 45//78 44//78 48//78
f 46//79 45//79 48//79
f 47//80 46//80 48//80
f 49//81 50//81 51//81
f 50//82 49//82 54//82
f 49//83 51//83 52//83
f 49//84 52//84 53//84
f 49//85 53//85 54//85
f 50//86 54//86 59//86
f 51//87 50//87 55//87
f 52//88 51//88 56//88
f 53//89 52//89 57//89
f 54//90 53//90 58//90
f 50//91 59//91 55//91
f 51//92 55//92 56//92
f 52//93 56//93 57//93
f 53//94 57//94 58//94
f 54//95 58//95 59//95
f 55//96 59//96 60//96
f 56//97 55//97 60//97
f 57//98 56//98 60//98
f 58//99 57//99 60//99
f 59//100 58//100 60//100
o Cylinder_Cylinder.002
v 0.000000 -0.016935 -0.301493
v 0.000000 1.799928 -0.200000
v 0.212418 -0.016935 -0.213188
v 0.141421 1.799928 -0.141421
v 0.300405 -0.016935 0.000000
v 0.200000 1.751335 0.000000
v 0.212418 -0.016935 0.213188
v 0.141421 1.774209 0.141421
v -0.000000 -0.016935 0.301493
v 0.006939 1.847451 0.200000
v -0.212418 -0.016935 0.213187
v -0.141421 1.802008 0.141421
v -0.300405 -0.016935 -0.000000
v -0.221864 1.824561 -0.020481
v -0.212418 -0.016935 -0.213187
v -0.141421 1.761329 -0.141421
v 0.328065 3.321226 -0.027894
v 0.347313 3.316920 -0.019724
v 0.355286 3.315137 0.000000
v 0.347313 3.316920 0.019724
v 0.328065 3.321226 0.027894
v 0.308817 3.325531 0.019724
v 0.300844 3.327314 0.000000
v 0.308817 3.325531 -0.019724
v -0.038597 2.598495 0.000000
v -0.007630 2.556011 -0.078087
v 0.141896 2.531960 -0.078087
v 0.172864 2.536879 0.000000
v 0.067133 2.567687 0.110432
v -0.007630 2.589471 0.078087
v 0.067133 2.567687 -0.110432
v 0.141896 2.545902 0.078087
v 0.000000 0.294872 -0.200000
v 0.141421 0.294872 -0.141421
v 0.200000 0.294872 0.000000
v 0.141421 0.294872 0.141421
v -0.000000 0.294872 0.200000
v -0.141421 0.294872 0.141421
v -0.200000 0.294872 -0.000000
v -0.141421 0.294872 -0.141421
v -0.071767 2.135548 -0.100014
v 0.185872 2.098834 0.000000
v -0.071767 2.096362 0.096435
v 0.034951 2.094118 -0.153369
v 0.141668 2.061881 0.108448
v -0.115971 2.102789 0.000000
v 0.141668 2.061881 -0.108448
v 0.034951 2.113201 0.153369
v 0.000000 1.458948 -0.200000
v 0.141421 1.458948 -0.141421
v 0.200000 1.458948 0.000000
v 0.141421 1.469640 0.141421
v -0.000000 1.428119 0.200000
v -0.141421 1.473204 0.141421
v -0.217491 1.449110 -0.000000
v -0.141421 1.458948 -0.141421
v -0.167357 2.147275 0.930190
v -0.193952 2.164663 0.934714
v -0.222592 2.152255 0.925775
v -0.168254 2.086707 0.952795
v -0.196518 2.083046 0.965112
v -0.223555 2.087243 0.950039
v -0.088449 1.631270 0.535385
v -0.179730 1.658432 0.495877
v -0.083426 1.917011 0.522060
v 0.003764 1.868253 0.487176
v -0.179308 1.886050 0.485241
v 0.003371 1.656196 0.497085
v 1.086679 2.201442 -0.127072
v 1.102493 2.193579 -0.097240
v 1.088030 2.198415 -0.066107
v 1.071429 2.285508 -0.091987
v 1.065128 2.273952 -0.068977
v 1.064092 2.276274 -0.115727
v 0.562436 1.882894 -0.141051
v 0.607051 1.856002 -0.049699
v 0.518712 2.115183 -0.111284
v 0.520634 2.110662 0.030782
v 0.543471 2.141914 -0.039565
v 0.564942 1.876998 0.044209
v -0.083167 2.316857 0.000000
v 0.141765 2.290891 -0.095576
v 0.048595 2.312593 0.135165
v -0.044575 2.304130 -0.090718
v 0.180357 2.285599 0.000000
v -0.044575 2.310183 0.088656
v 0.048595 2.282650 -0.135165
v 0.141765 2.279897 0.095576
v -0.547210 2.209591 -0.832359
v -0.587533 2.218610 -0.803241
v -0.574311 2.209046 -0.825939
v -0.544022 2.263365 -0.799536
v -0.527063 2.252831 -0.809442
v -0.555745 2.256301 -0.784759
v -0.345537 1.873420 -0.463440
v -0.249158 1.897945 -0.502091
v -0.324210 2.101627 -0.363545
v -0.399630 1.915900 -0.381187
v -0.293308 2.135008 -0.430577
v -0.221553 2.095223 -0.466806
v 0.126471 2.571535 -0.699403
v 0.164033 2.570875 -0.701595
v 0.144229 2.580192 -0.704679
v 0.170742 2.521013 -0.734395
v 0.124464 2.517646 -0.732621
v 0.147585 2.521166 -0.744429
v 0.037472 2.494405 -0.287683
v 0.014681 2.309103 -0.315798
v 0.083942 2.298321 -0.350244
v 0.152893 2.303152 -0.320537
v 0.092531 2.506804 -0.310714
v 0.148634 2.479446 -0.289617
v 0.128517 0.920467 -0.128623
v 0.181794 0.920467 0.000000
v 0.128517 0.925694 0.128623
v -0.000106 0.905396 0.181900
v -0.128729 0.927436 0.128623
v -0.190557 0.915658 -0.000000
v -0.128729 0.920467 -0.128623
v -0.000106 0.920467 -0.181900
vn 0.382700 0.000000 -0.923900
vn 0.923900 0.000000 -0.382700
vn 0.923900 0.000000 0.382700
vn 0.350900 0.844600 -0.404300
vn -0.449900 -0.670100 0.590300
vn -0.888700 0.007800 0.458500
vn -0.795200 0.366900 -0.482700
vn -0.382700 0.000000 -0.923900
vn -0.860500 -0.020900 -0.509100
vn 0.000000 -1.000000 0.000000
vn 0.218300 0.975900 0.000000
vn 0.910200 -0.212500 -0.355500
vn -0.335100 0.216600 0.917000
vn -0.400200 0.233700 -0.886100
vn 0.384100 -0.031900 -0.922700
vn 0.899900 -0.210900 0.381600
vn -0.839500 0.390900 0.377400
vn 0.387700 -0.033500 0.921200
vn 0.409200 0.059100 0.910500
vn -0.909200 0.139500 0.392400
vn 0.928200 0.025800 0.371300
vn 0.236600 -0.862800 -0.446700
vn -0.972100 0.147500 -0.182400
vn -0.413100 0.102700 0.904900
vn 0.928000 0.027100 -0.371600
vn -0.896700 0.146900 -0.417600
vn -0.885700 0.285600 -0.366100
vn -0.367200 0.287600 -0.884600
vn -0.885700 0.285600 0.366100
vn -0.367200 0.287600 0.884600
vn 0.367200 0.287600 0.884600
vn 0.885700 0.285600 0.366100
vn 0.885700 0.285600 -0.366100
vn 0.367200 0.287600 -0.884600
vn -0.046200 0.122700 -0.991400
vn -0.446500 0.219700 0.867400
vn -0.785700 0.288500 0.547300
vn 0.394500 0.105700 -0.912800
vn 0.472000 -0.756700 -0.452400
vn 0.437900 0.106100 0.892800
vn -0.851900 0.280100 0.442500
vn -0.081900 -0.758600 -0.646400
vn -0.889100 -0.038300 -0.456100
vn -0.382500 -0.031000 -0.923400
vn -0.887900 -0.038000 0.458500
vn -0.389100 -0.031200 0.920700
vn 0.388600 -0.031400 0.920900
vn 0.922800 -0.031100 0.384100
vn 0.923400 -0.031200 -0.382500
vn 0.382500 -0.031100 -0.923400
vn 0.350200 0.319700 0.880400
vn -0.414500 0.326600 0.849400
vn -0.995700 -0.006300 -0.092100
vn 0.942700 0.035100 0.331800
vn 0.430800 -0.567500 0.701600
vn -0.100500 0.844200 -0.526600
vn -0.196100 0.946600 -0.256100
vn 0.431400 -0.717900 0.546300
vn 0.931500 0.006300 0.363600
vn -0.994200 -0.001300 -0.108000
vn -0.418000 -0.822300 0.386100
vn 0.462100 0.884900 -0.059000
vn 0.867600 0.317200 -0.383000
vn 0.884300 0.279700 0.373800
vn -0.210900 0.911800 0.352300
vn 0.541000 -0.740900 0.397900
vn 0.154800 0.085500 0.984200
vn -0.276500 0.926300 -0.256000
vn -0.140800 0.949100 -0.281600
vn 0.193100 0.103200 0.975700
vn 0.279900 -0.915100 0.290300
vn -0.064000 0.940200 0.334700
vn 0.183400 -0.908300 -0.375900
vn -0.024200 0.123800 -0.992000
vn -0.912300 0.152300 -0.380100
vn 0.925100 0.023800 -0.379100
vn -0.464900 0.101300 0.879500
vn -0.406800 0.116300 -0.906100
vn 0.394400 0.055300 -0.917300
vn 0.924500 0.024500 0.380300
vn -0.901100 0.133800 0.412500
vn 0.408200 0.054400 0.911300
vn -0.190800 0.519600 -0.832800
vn -0.619400 0.639800 -0.455000
vn -0.109800 0.912600 0.393900
vn -0.737100 -0.660000 -0.145500
vn 0.483000 0.875200 -0.025800
vn 0.748500 0.011900 -0.663100
vn 0.773200 0.007300 -0.634100
vn 0.306700 0.924400 -0.226900
vn -0.555400 -0.829100 0.063600
vn -0.341500 0.916300 0.209200
vn 0.090900 -0.922000 -0.376400
vn -0.830600 0.285300 0.478200
vn 0.352400 0.541200 -0.763400
vn -0.456100 0.479200 -0.749900
vn -0.224000 0.964300 0.141000
vn -0.312600 -0.809300 -0.497300
vn 0.998000 0.033500 0.052700
vn 0.368300 0.904400 0.215600
vn 0.489600 0.849700 -0.195800
vn 0.999200 0.005200 0.040400
vn -0.238900 -0.966200 -0.096700
vn -0.303100 0.897500 -0.320300
vn -0.956000 0.153900 -0.249600
vn 0.102400 -0.993400 -0.052200
vn 0.382500 0.026800 -0.923500
vn 0.923500 0.026900 -0.382500
vn 0.923700 0.026800 0.382100
vn 0.380800 0.027000 0.924300
vn -0.380700 0.026800 0.924300
vn -0.913500 0.020300 0.406400
vn -0.382500 0.026700 -0.923600
vn -0.913300 0.020400 -0.406800
usemtl Material.001
s off
f 109//101 62//101 64//101 110//101
f 110//102 64//102 66//102 111//102
f 111//103 66//103 68//103 112//103
f 126//104 125//104 118//104 117//104
f 124//105 123//105 121//105 122//105
f 114//106 72//106 74//106 115//106
f 86//107 85//107 83//107 84//107
f 116//108 76//108 62//108 109//108
f 115//109 74//109 76//109 116//109
f 61//110 63//110 65//110 67//110 69//110 71//110 73//110 75//110
f 78//111 77//111 84//111 83//111 82//111 81//111 80//111 79//111
f 88//112 87//112 78//112 79//112
f 90//113 89//113 81//113 82//113
f 91//114 86//114 84//114 77//114
f 87//115 91//115 77//115 78//115
f 92//116 88//116 79//116 80//116
f 85//117 90//117 82//117 83//117
f 89//118 92//118 80//118 81//118
f 143//119 148//119 92//119 89//119
f 141//120 146//120 90//120 85//120
f 148//121 145//121 88//121 92//121
f 170//122 169//122 166//122 164//122
f 168//123 167//123 161//123 165//123
f 146//124 143//124 89//124 90//124
f 145//125 142//125 87//125 88//125
f 144//126 141//126 85//126 86//126
f 73//127 99//127 100//127 75//127
f 75//128 100//128 93//128 61//128
f 71//129 98//129 99//129 73//129
f 69//130 97//130 98//130 71//130
f 67//131 96//131 97//131 69//131
f 65//132 95//132 96//132 67//132
f 63//133 94//133 95//133 65//133
f 61//134 93//134 94//134 63//134
f 135//135 137//135 134//135 129//135
f 72//136 70//136 108//136 103//136
f 158//137 157//137 154//137 150//137
f 64//138 62//138 104//138 107//138
f 136//139 135//139 129//139 130//139
f 70//140 68//140 105//140 108//140
f 72//141 103//141 106//141 74//141
f 156//142 155//142 151//142 149//142
f 178//143 115//143 116//143 179//143
f 179//144 116//144 109//144 180//144
f 177//145 114//145 115//145 178//145
f 176//146 113//146 114//146 177//146
f 175//147 112//147 113//147 176//147
f 174//148 111//148 112//148 175//148
f 173//149 110//149 111//149 174//149
f 180//150 109//150 110//150 173//150
f 120//151 117//151 118//151 121//151
f 121//152 118//152 119//152 122//152
f 127//153 124//153 122//153 119//153
f 128//154 126//154 117//154 120//154
f 123//155 128//155 120//155 121//155
f 125//156 127//156 119//156 118//156
f 70//157 72//157 127//157 125//157
f 113//158 112//158 128//158 123//158
f 112//159 68//159 126//159 128//159
f 72//160 114//160 124//160 127//160
f 114//161 113//161 123//161 124//161
f 68//162 70//162 125//162 126//162
f 130//163 129//163 134//163 132//163
f 131//164 130//164 132//164 133//164
f 139//165 138//165 133//165 132//165
f 140//166 136//166 130//166 131//166
f 138//167 140//167 131//167 133//167
f 137//168 139//168 132//168 134//168
f 107//169 102//169 139//169 137//169
f 105//170 68//170 140//170 138//170
f 68//171 66//171 136//171 140//171
f 102//172 105//172 138//172 139//172
f 66//173 64//173 135//173 136//173
f 64//174 107//174 137//174 135//174
f 101//175 106//175 141//175 144//175
f 102//176 107//176 142//176 145//176
f 103//177 108//177 143//177 146//177
f 104//178 101//178 144//178 147//178
f 107//179 104//179 147//179 142//179
f 105//180 102//180 145//180 148//180
f 106//181 103//181 146//181 141//181
f 108//182 105//182 148//182 143//182
f 149//183 151//183 152//183 153//183
f 150//184 154//184 152//184 151//184
f 157//185 159//185 152//185 154//185
f 155//186 158//186 150//186 151//186
f 159//187 160//187 153//187 152//187
f 160//188 156//188 149//188 153//188
f 104//189 62//189 156//189 160//189
f 101//190 104//190 160//190 159//190
f 76//191 74//191 158//191 155//191
f 106//192 101//192 159//192 157//192
f 62//193 76//193 155//193 156//193
f 74//194 106//194 157//194 158//194
f 164//195 166//195 163//195 162//195
f 166//196 165//196 161//196 163//196
f 167//197 171//197 163//197 161//197
f 169//198 168//198 165//198 166//198
f 172//199 170//199 164//199 162//199
f 171//200 172//200 162//200 163//200
f 91//201 87//201 172//201 171//201
f 87//202 142//202 170//202 172//202
f 147//203 144//203 168//203 169//203
f 86//204 91//204 171//204 167//204
f 144//205 86//205 167//205 168//205
f 142//206 147//206 169//206 170//206
f 93//207 180//207 173//207 94//207
f 94//208 173//208 174//208 95//208
f 95//209 174//209 175//209 96//209
f 96//210 175//210 176//210 97//210
f 97//211 176//211 177//211 98//211
f 98//212 177//212 178//212 99//212
f 100//213 179//213 180//213 93//213
f 99//214 178//214 179//214 100//214
